<svg xmlns="http://www.w3.org/2000/svg" width="582" height="645" viewBox="0 0 582 645">
<g>
<path d="M 0.00 0.00 L 582.00 0.00 L 364.50 0.16 L 376.50 2.47 C432.96,13.32 474.40,36.21 508.74,75.50 C516.14,83.97 528.00,99.64 528.00,100.95 C528.00,101.38 525.19,102.75 521.75,104.00 C506.32,109.59 493.05,117.97 483.30,128.27 C477.16,134.77 473.08,141.03 466.09,154.70 C460.16,166.28 455.38,171.63 447.85,175.09 C436.86,180.16 434.49,181.68 433.57,184.30 C431.59,189.90 438.67,192.99 448.97,191.02 C463.28,188.27 472.34,179.89 482.47,160.00 C488.49,148.19 490.31,145.56 497.00,139.00 C505.97,130.21 516.13,124.21 529.55,119.78 L 538.82 116.72 L 543.58 120.61 C549.68,125.59 557.37,134.92 562.61,143.69 C586.33,183.37 586.50,256.36 562.98,303.00 C554.34,320.14 540.10,337.29 525.27,348.42 C505.62,363.17 477.35,374.98 416.50,393.86 C385.14,403.60 374.25,407.38 363.71,412.22 L 356.91 415.34 L 351.21 413.55 C338.52,409.57 326.25,401.39 315.40,389.67 C308.20,381.89 294.68,362.14 283.46,343.00 C267.18,315.21 246.43,300.37 216.96,295.44 C208.15,293.97 202.68,293.79 182.13,294.30 L 157.75 294.90 L 143.22 289.45 C104.89,275.06 83.58,257.19 70.43,228.40 C57.25,199.56 58.09,161.06 72.55,130.49 C80.40,113.90 98.57,93.66 113.68,84.68 C130.30,74.79 143.57,70.99 161.41,71.01 C180.57,71.04 192.69,74.84 201.43,83.59 C207.82,89.98 210.83,96.71 212.04,107.34 C213.55,120.65 215.62,129.99 218.47,136.39 C228.20,158.20 246.03,171.29 277.00,179.36 C292.95,183.52 296.96,185.09 303.10,189.59 C312.23,196.26 317.00,207.31 317.00,221.76 C317.00,236.44 313.73,245.69 304.00,258.50 C297.73,266.76 293.00,276.26 293.00,280.60 C293.00,282.55 293.96,284.74 295.56,286.47 C297.66,288.74 298.67,289.12 301.24,288.60 C305.59,287.73 307.15,286.06 313.14,275.85 C322.36,260.14 340.85,244.43 355.89,239.51 C360.52,238.00 363.33,237.85 375.63,238.46 C387.55,239.05 390.81,238.89 394.85,237.55 C406.26,233.76 417.76,218.16 412.80,213.20 C410.59,210.99 406.28,211.97 400.15,216.06 C396.80,218.29 392.59,220.55 390.78,221.07 C388.92,221.60 381.21,221.75 373.00,221.40 C358.94,220.80 358.27,220.87 351.00,223.52 C346.88,225.02 341.36,227.32 338.75,228.64 L 334.00 231.03 L 334.00 221.73 C334.00,204.99 328.38,190.30 318.13,180.20 C309.85,172.06 299.45,167.09 281.06,162.49 C264.68,158.39 258.62,155.82 249.89,149.25 C243.14,144.18 239.32,139.47 234.87,130.71 C232.54,126.12 231.45,121.61 229.58,108.91 C227.66,95.88 226.62,91.68 224.02,86.38 C218.00,74.15 204.87,62.65 192.25,58.55 C189.36,57.61 187.00,56.38 187.00,55.82 C187.00,53.59 211.00,31.16 219.82,25.15 C235.17,14.69 252.55,7.17 273.33,2.00 C280.32,0.27 276.93,0.22 140.25,0.11 L 0.00 0.00 ZM 582.00 645.00 L 0.00 645.00 L 87.25 644.88 C135.24,644.82 172.48,644.41 170.00,643.98 C150.50,640.61 116.68,627.36 99.99,616.56 C79.65,603.40 70.43,584.61 73.85,563.26 C75.94,550.23 80.42,542.48 93.97,528.50 C107.49,514.55 113.31,507.73 121.74,496.00 C155.05,449.66 175.00,396.74 175.00,354.73 C175.00,344.81 172.49,326.94 170.00,319.10 C168.88,315.58 168.21,312.46 168.50,312.16 C168.80,311.86 178.82,311.61 190.77,311.61 C215.95,311.59 222.41,312.66 235.42,319.02 C251.03,326.64 259.39,335.69 275.62,362.50 C296.19,396.48 312.15,413.77 333.42,425.14 L 339.35 428.30 L 336.34 430.90 C334.68,432.33 329.14,437.10 324.03,441.50 C280.83,478.69 245.48,535.78 233.63,587.50 C232.74,591.35 231.11,598.49 230.00,603.37 C225.08,624.96 211.57,639.19 191.94,643.44 C186.34,644.66 211.50,644.85 383.75,644.92 L 582.00 645.00 Z" fill="rgb(0,0,0)"/>
<path d="M 400.83 0.14 C380.70,0.22 368.15,0.35 368.15,0.48 C368.15,0.49 368.15,0.49 368.15,0.49 C368.42,0.75 372.43,1.68 377.07,2.55 C397.70,6.42 416.62,12.18 434.01,19.94 C416.67,12.28 397.64,6.53 376.50,2.47 L 364.50 0.16 ZM 268.63 0.61 C259.28,0.45 242.59,0.31 220.98,0.21 C247.07,0.27 261.33,0.38 268.63,0.61 ZM 251.51 8.76 C257.73,6.32 263.81,4.34 269.22,3.07 C263.03,4.74 257.13,6.63 251.51,8.76 Z" fill="rgb(152,152,152)"/>
</g>
</svg>