<?xml version="1.0" encoding="UTF-8" standalone="no"?>
<svg
   width="372"
   height="707"
   viewBox="0 0 372 707"
   version="1.1"
   id="svg3"
   sodipodi:docname="deformed_malleus_test.svg"
   inkscape:version="1.4.2 (f4327f4, 2025-05-13)"
   xmlns:inkscape="http://www.inkscape.org/namespaces/inkscape"
   xmlns:sodipodi="http://sodipodi.sourceforge.net/DTD/sodipodi-0.dtd"
   xmlns="http://www.w3.org/2000/svg"
   xmlns:svg="http://www.w3.org/2000/svg">
  <defs
     id="defs3" />
  <sodipodi:namedview
     id="namedview3"
     pagecolor="#ffffff"
     bordercolor="#000000"
     borderopacity="0.25"
     inkscape:showpageshadow="2"
     inkscape:pageopacity="0.0"
     inkscape:pagecheckerboard="0"
     inkscape:deskcolor="#d1d1d1"
     inkscape:zoom="2.427157"
     inkscape:cx="160.88782"
     inkscape:cy="588.75466"
     inkscape:window-width="1920"
     inkscape:window-height="1051"
     inkscape:window-x="-9"
     inkscape:window-y="-9"
     inkscape:window-maximized="1"
     inkscape:current-layer="svg3" />
  <path
     d="m 157.93,682.29 c -16.28,7.16 -23.7,6.99 -34.92,-0.79 -13.38,-9.27 -21.39,-31.53 -18.98,-52.74 1.19,-10.51 3.13,-16.14 11.31,-32.9 13.88,-28.42 20.6,-57.01 23.85,-101.44 1.64,-22.32 1.62,-123.17 -0.02,-155.42 -1.07,-20.91 -3.36,-51.08 -5.78,-76 -1.78,-18.34 12.38,-41 25.64,-41 3.93,0 6.2,1.2 12.67,6.67 2.86,2.42 7.29,5.32 9.85,6.46 5.39,2.38 8.72,2.05 16.7,-1.67 2.89,-1.34 6.25,-2.44 7.47,-2.45 3.51,-0.02 8.83,5.45 11.41,11.74 2.06,4.99 2.37,7.39 2.37,18.25 0,6.88 -0.78,19.92 -1.73,29 -5.38,51.39 -6.74,157.45 -2.72,212.44 2.71,37.12 10.53,68.3 23.97,95.53 8.96,18.14 10.49,23.92 10.44,39.53 -0.04,11.03 -0.4,13.99 -2.38,19.5 -6.79,18.92 -19.45,30.38 -33.53,30.37 -4.82,0 -7.77,-0.77 -14.55,-3.78 -18.89,-8.4 -24.53,-8.58 -41.07,-1.3 z m -24.5,-452.75 c -2.07,3 -3.93,5.46 -4.13,5.46 -0.52,0 -0.92,-1.34 -3.75,-12.77 -4.28,-17.29 -10.67,-29.89 -18.41,-36.27 -4.2,-3.46 -11.61,-6.46 -18.54,-7.5 l -4.82,-0.72 0.6,-4.62 c 3.71,-28.41 3.97,-32.61 3.98,-65.12 0.01,-32.01 -0.85,-45.18 -3.97,-60.79 -0.6,-3.02 -0.47,-3.21 2.23,-3.2 3.86,0.01 13.32,3.03 21.88,6.98 18.15,8.37 26.29,9.5 47,6.5 12.87,-1.87 26.06,-1.87 41.04,0 23.43,2.92 30.72,2.01 47.96,-5.99 20.95,-9.74 35.75,-12.91 49.94,-10.7 4.18,0.65 9.34,2.07 11.47,3.16 5.32,2.71 10.47,9.03 13.11,16.1 2.09,5.58 2.19,7.05 1.7,25.18 -0.98,36.16 -10.24,69.17 -22.91,81.67 -6,5.92 -9.91,7.34 -30.38,11.05 -12.38,2.24 -18.73,5.35 -24.88,12.19 -7.32,8.14 -12.12,18.96 -16.1,36.26 l -1.82,7.9 -4.07,-4.55 c -2.23,-2.5 -5.31,-5.33 -6.85,-6.29 -4.25,-2.67 -12.1,-2.3 -18.71,0.87 -7.17,3.44 -8.98,3.34 -14.17,-0.77 -2.38,-1.89 -6.69,-5.11 -9.58,-7.17 -12.26,-8.72 -26.07,-3.92 -37.82,13.14 z M 74.83,172.25 73.74,178 57.62,177.99 C 41.95,177.98 41.41,177.91 38.33,175.48 37.34,174.7 36.5,174.04 35.8,173.27 31.9,169 31.94,161.15 32.21,109.4 v -0.45 c 0.26,-49.86 0.09,-57.44 3.76,-60.8 0.88,-0.8 1.97,-1.36 3.33,-2.19 2.81,-1.72 5.1,-1.95 18.88,-1.96 14.07,0 15.74,0.18 16.23,1.75 0.3,0.96 1.52,9.4 2.71,18.75 3.7,28.94 2.57,82.12 -2.29,107.75 z m 54.48,496.5 c 2.26,2.34 4.41,4.25 4.78,4.25 0.37,0 -1,-3.34 -3.05,-7.43 -4.64,-9.24 -6.58,-17.71 -6.42,-28.12 0.15,-9.53 1.96,-16.27 7.97,-29.64 7.89,-17.56 13.41,-41.31 15.39,-66.21 1.29,-16.27 1.3,-23.6 0.02,-23.6 -0.56,0 -1,2.82 -1,6.45 0,9.02 -5.19,34.15 -10.07,48.77 -2.25,6.75 -7.42,19.25 -11.49,27.78 -10.5,22.03 -12.16,30.95 -8.45,45.46 2.24,8.76 6.25,16.01 12.32,22.29 z"
     fill="#010101"
     id="path1"
     sodipodi:nodetypes="cccccccscccccscccccccccscccccccccccccccccccccccccccccccccccccccccsccccsscccc" />
  <path
     d="m 145.49,562.23 c 1.14,-7.61 1.82,-15.27 1.99,-22.73 0.2,-8.25 0.13,-13.42 -0.13,-11.5 -0.77,5.47 -2.28,13.19 -4.02,20.97 2.16,-10.08 3.67,-19.65 3.67,-24.52 0,-3.63 0.44,-6.45 1,-6.45 1.28,0 1.27,7.33 -0.02,23.6 -0.56,7.01 -1.4,13.92 -2.49,20.63 z"
     fill="#9e9e9e"
     id="path2"
     sodipodi:nodetypes="ccccsscc" />
</svg>
