<svg xmlns="http://www.w3.org/2000/svg" width="493" height="645" viewBox="0 0 493 645">
<g>
<path d="M 0.00 0.00 L 493.00 0.00 L 457.25 0.10 C437.59,0.15 422.40,0.50 423.50,0.86 C438.60,5.83 451.51,20.65 457.81,40.23 C460.30,47.95 460.47,49.71 460.45,66.50 C460.43,82.45 460.13,85.75 457.79,95.50 C454.18,110.55 450.21,122.12 440.85,144.86 C423.89,186.05 421.02,198.54 420.98,231.36 C420.96,252.78 418.21,262.91 410.16,271.33 C405.58,276.13 400.88,278.57 390.40,281.61 C385.86,282.93 381.52,284.25 380.75,284.54 C378.82,285.28 377.39,281.73 375.43,271.29 C373.63,261.73 373.98,252.40 376.55,241.54 C378.43,233.54 378.36,232.95 375.94,236.50 C364.00,254.02 360.26,275.61 365.09,299.04 C368.46,315.36 368.47,335.78 365.13,348.50 C360.17,367.38 352.15,378.93 341.15,383.05 C338.13,384.18 334.35,384.97 332.77,384.80 C330.16,384.53 329.65,383.83 327.62,377.77 C322.64,362.94 311.88,352.40 296.17,346.97 C287.95,344.14 271.37,343.88 262.53,346.45 C254.76,348.71 243.81,354.28 230.02,362.99 C207.83,377.00 195.35,381.96 180.27,382.73 C170.51,383.24 169.79,383.13 164.45,380.43 C151.75,374.00 147.29,364.22 143.52,334.50 C142.68,327.90 141.74,321.58 141.43,320.45 C140.89,318.45 141.24,318.40 156.19,318.38 C169.10,318.37 172.75,318.01 179.50,316.08 C220.11,304.48 244.04,262.67 241.68,207.47 C240.48,179.47 231.36,155.17 214.80,135.83 C212.12,132.71 210.29,129.95 210.72,129.69 C211.15,129.44 213.52,128.92 216.00,128.55 C230.58,126.34 250.08,118.50 265.00,108.86 C282.56,97.51 295.28,85.30 322.67,53.50 C337.04,36.82 352.88,21.34 362.51,14.58 C370.01,9.32 382.60,2.51 387.50,1.06 C389.26,0.54 310.05,0.14 195.25,0.09 L 0.00 0.00 ZM 179.21 299.56 C166.99,303.81 147.39,303.61 127.88,299.03 C105.38,293.74 91.73,286.77 78.16,273.64 C63.11,259.05 53.49,239.98 47.84,213.50 C45.77,203.79 45.50,199.87 45.52,180.00 C45.54,159.83 45.79,156.53 47.88,148.17 C55.13,119.12 70.92,95.56 89.74,85.69 C98.53,81.09 105.49,79.80 114.56,81.08 C125.91,82.69 131.36,86.38 145.49,102.03 C160.12,118.24 162.17,119.92 176.50,127.49 C191.01,135.16 195.32,138.15 202.50,145.53 C217.66,161.11 226.25,186.60 226.26,216.00 C226.27,244.46 217.83,268.79 202.50,284.52 C194.68,292.53 189.16,296.10 179.21,299.56 ZM 264.61 645.00 L 0.00 645.00 L 247.50 644.96 L 243.06 642.94 C230.94,637.44 225.37,628.65 222.04,609.77 C219.52,595.48 218.00,568.29 218.00,537.28 C218.00,475.49 212.08,431.23 200.03,402.90 L 197.13 396.10 L 202.43 394.56 C209.33,392.56 228.17,382.85 239.26,375.60 C262.67,360.27 281.03,356.45 295.87,363.83 C303.10,367.43 310.52,375.66 312.48,382.24 C314.90,390.40 314.45,393.10 309.00,403.30 C300.51,419.20 294.89,434.28 290.11,454.00 C282.32,486.11 278.73,532.01 280.92,571.50 C283.17,612.05 283.34,620.39 282.06,625.74 C280.14,633.74 276.10,639.28 269.92,642.35 L 264.61 645.00 ZM 70.58 226.24 C71.56,228.29 72.55,229.78 72.79,229.54 C73.03,229.30 72.75,226.27 72.17,222.80 C68.52,201.00 68.22,171.89 71.44,150.89 C72.83,141.82 76.95,123.75 78.58,119.61 C79.10,118.29 78.93,117.86 78.03,118.16 C75.81,118.90 67.81,133.11 64.91,141.48 C60.08,155.42 58.69,164.75 59.26,179.42 C59.92,196.46 63.56,211.53 70.58,226.24 Z" fill="rgb(0,0,0)"/>
<path d="M 382.47 3.10 L 386.71 0.96 C387.36,0.99 387.62,1.03 387.50,1.06 C386.25,1.43 384.51,2.15 382.47,3.10 ZM 362.51 14.58 C357.69,17.96 351.33,23.52 344.37,30.32 C351.32,23.53 357.68,17.96 362.51,14.57 C363.33,13.98 364.32,13.33 365.42,12.63 C364.39,13.29 363.41,13.95 362.51,14.58 Z" fill="rgb(81,81,81)"/>
<path d="M 434.35 6.36 C442.17,11.48 449.29,20.40 454.29,31.19 C449.39,20.63 442.44,12.01 434.35,6.36 ZM 427.16 0.52 C425.39,0.67 424.69,0.84 425.00,1.06 C425.31,1.27 425.90,1.62 426.67,2.06 C425.63,1.61 424.57,1.21 423.50,0.86 C423.14,0.74 424.50,0.63 427.16,0.52 ZM 454.29 31.19 C455.62,34.07 456.80,37.08 457.81,40.22 C456.80,37.10 455.62,34.08 454.29,31.19 Z" fill="rgb(180,180,180)"/>
</g>
</svg>